<?xml version="1.0" standalone="no"?>
<!DOCTYPE svg PUBLIC "-//W3C//DTD SVG 20010904//EN"
 "http://www.w3.org/TR/2001/REC-SVG-20010904/DTD/svg10.dtd">
<svg version="1.0" xmlns="http://www.w3.org/2000/svg"
 width="410.000000pt" height="410.000000pt" viewBox="0 0 410.000000 410.000000"
 preserveAspectRatio="xMidYMid meet">
<metadata>
Created by potrace 1.14, written by Peter Selinger 2001-2017
</metadata>
<g transform="translate(0.000000,410.000000) scale(0.100000,-0.100000)"
fill="#000000" stroke="none">
<path d="M400 3350 l0 -350 350 0 350 0 0 350 0 350 -350 0 -350 0 0 -350z
m600 0 l0 -250 -250 0 -250 0 0 250 0 250 250 0 250 0 0 -250z"/>
<path d="M600 3350 l0 -150 150 0 150 0 0 150 0 150 -150 0 -150 0 0 -150z"/>
<path d="M1200 3500 l0 -200 50 0 50 0 0 -50 0 -50 -50 0 -50 0 0 -100 0 -100
50 0 50 0 0 50 0 50 50 0 50 0 0 -150 0 -150 50 0 50 0 0 50 0 50 50 0 50 0 0
-50 0 -50 50 0 50 0 0 -100 0 -100 -50 0 -50 0 0 -50 0 -50 -50 0 -50 0 0 -50
0 -50 -150 0 -150 0 0 -50 0 -50 -150 0 -150 0 0 -100 0 -100 50 0 50 0 0 -50
0 -50 -50 0 -50 0 0 -50 0 -50 -50 0 -50 0 0 50 0 50 -50 0 -50 0 0 -50 0 -50
-50 0 -50 0 0 150 0 150 -50 0 -50 0 0 50 0 50 100 0 100 0 0 -50 0 -50 50 0
50 0 0 100 0 100 -50 0 -50 0 0 50 0 50 -50 0 -50 0 0 50 0 50 -50 0 -50 0 0
50 0 50 -50 0 -50 0 0 -50 0 -50 50 0 50 0 0 -50 0 -50 -50 0 -50 0 0 -50 0
-50 50 0 50 0 0 -50 0 -50 -50 0 -50 0 0 -50 0 -50 50 0 50 0 0 -50 0 -50 -50
0 -50 0 0 -50 0 -50 50 0 50 0 0 -100 0 -100 -50 0 -50 0 0 -50 0 -50 100 0
100 0 0 -50 0 -50 50 0 50 0 0 -50 0 -50 150 0 150 0 0 -50 0 -50 50 0 50 0 0
50 0 50 -50 0 -50 0 0 50 0 50 50 0 50 0 0 50 0 50 -50 0 -50 0 0 -50 0 -50
-50 0 -50 0 0 150 0 150 50 0 50 0 0 -50 0 -50 50 0 50 0 0 50 0 50 -50 0 -50
0 0 50 0 50 100 0 100 0 0 50 0 50 50 0 50 0 0 -50 0 -50 50 0 50 0 0 -100 0
-100 -100 0 -100 0 0 -50 0 -50 50 0 50 0 0 -50 0 -50 -50 0 -50 0 0 -50 0
-50 100 0 100 0 0 -50 0 -50 -50 0 -50 0 0 -100 0 -100 -50 0 -50 0 0 50 0 50
-150 0 -150 0 0 -50 0 -50 150 0 150 0 0 -50 0 -50 50 0 50 0 0 -50 0 -50 -50
0 -50 0 0 -100 0 -100 100 0 100 0 0 -50 0 -50 -50 0 -50 0 0 -50 0 -50 -50 0
-50 0 0 -100 0 -100 100 0 100 0 0 150 0 150 50 0 50 0 0 -50 0 -50 50 0 50 0
0 -50 0 -50 50 0 50 0 0 50 0 50 -50 0 -50 0 0 100 0 100 50 0 50 0 0 50 0 50
-50 0 -50 0 0 -50 0 -50 -50 0 -50 0 0 50 0 50 -100 0 -100 0 0 50 0 50 50 0
50 0 0 50 0 50 50 0 50 0 0 -50 0 -50 300 0 300 0 0 -100 0 -100 -50 0 -50 0
0 -50 0 -50 -50 0 -50 0 0 -50 0 -50 -50 0 -50 0 0 -100 0 -100 50 0 50 0 0
100 0 100 100 0 100 0 0 -50 0 -50 -50 0 -50 0 0 -50 0 -50 150 0 150 0 0 50
0 50 50 0 50 0 0 -50 0 -50 50 0 50 0 0 50 0 50 50 0 50 0 0 -50 0 -50 50 0
50 0 0 50 0 50 50 0 50 0 0 -50 0 -50 50 0 50 0 0 100 0 100 50 0 50 0 0 -100
0 -100 100 0 100 0 0 50 0 50 50 0 50 0 0 50 0 50 50 0 50 0 0 50 0 50 50 0
50 0 0 -50 0 -50 50 0 50 0 0 50 0 50 50 0 50 0 0 50 0 50 -50 0 -50 0 0 50 0
50 -50 0 -50 0 0 -50 0 -50 -50 0 -50 0 0 50 0 50 -50 0 -50 0 0 100 0 100 50
0 50 0 0 -50 0 -50 100 0 100 0 0 150 0 150 -50 0 -50 0 0 -100 0 -100 -50 0
-50 0 0 50 0 50 -50 0 -50 0 0 50 0 50 -100 0 -100 0 0 50 0 50 50 0 50 0 0
50 0 50 -50 0 -50 0 0 -50 0 -50 -50 0 -50 0 0 100 0 100 50 0 50 0 0 50 0 50
-50 0 -50 0 0 50 0 50 100 0 100 0 0 100 0 100 50 0 50 0 0 -50 0 -50 50 0 50
0 0 -50 0 -50 -50 0 -50 0 0 -50 0 -50 -50 0 -50 0 0 -50 0 -50 50 0 50 0 0
-50 0 -50 50 0 50 0 0 -50 0 -50 100 0 100 0 0 50 0 50 -100 0 -100 0 0 50 0
50 -50 0 -50 0 0 50 0 50 50 0 50 0 0 50 0 50 100 0 100 0 0 50 0 50 -100 0
-100 0 0 50 0 50 -50 0 -50 0 0 50 0 50 50 0 50 0 0 50 0 50 100 0 100 0 0 50
0 50 -150 0 -150 0 0 -50 0 -50 -100 0 -100 0 0 -50 0 -50 -50 0 -50 0 0 -50
0 -50 -50 0 -50 0 0 100 0 100 50 0 50 0 0 50 0 50 -50 0 -50 0 0 100 0 100
50 0 50 0 0 -50 0 -50 50 0 50 0 0 -50 0 -50 50 0 50 0 0 50 0 50 100 0 100 0
0 100 0 100 100 0 100 0 0 50 0 50 -50 0 -50 0 0 50 0 50 100 0 100 0 0 50 0
50 -200 0 -200 0 0 -50 0 -50 50 0 50 0 0 -100 0 -100 -50 0 -50 0 0 50 0 50
-50 0 -50 0 0 100 0 100 -50 0 -50 0 0 -100 0 -100 -50 0 -50 0 0 50 0 50 -50
0 -50 0 0 -50 0 -50 -50 0 -50 0 0 50 0 50 -50 0 -50 0 0 50 0 50 100 0 100 0
0 150 0 150 -50 0 -50 0 0 50 0 50 50 0 50 0 0 50 0 50 -100 0 -100 0 0 -100
0 -100 50 0 50 0 0 -100 0 -100 -50 0 -50 0 0 50 0 50 -50 0 -50 0 0 50 0 50
-50 0 -50 0 0 -50 0 -50 -50 0 -50 0 0 50 0 50 -50 0 -50 0 0 150 0 150 50 0
50 0 0 -50 0 -50 100 0 100 0 0 50 0 50 -50 0 -50 0 0 50 0 50 -50 0 -50 0 0
50 0 50 -50 0 -50 0 0 -100 0 -100 -100 0 -100 0 0 100 0 100 -200 0 -200 0 0
-50 0 -50 -100 0 -100 0 0 -50 0 -50 50 0 50 0 0 -150 0 -150 100 0 100 0 0
-150 0 -150 50 0 50 0 0 150 0 150 50 0 50 0 0 50 0 50 -50 0 -50 0 0 50 0 50
150 0 150 0 0 -50 0 -50 -50 0 -50 0 0 -50 0 -50 100 0 100 0 0 -50 0 -50 -50
0 -50 0 0 -50 0 -50 -50 0 -50 0 0 50 0 50 -50 0 -50 0 0 -100 0 -100 50 0 50
0 0 -50 0 -50 -200 0 -200 0 0 50 0 50 -50 0 -50 0 0 50 0 50 50 0 50 0 0 50
0 50 -50 0 -50 0 0 -50 0 -50 -50 0 -50 0 0 200 0 200 -50 0 -50 0 0 50 0 50
-50 0 -50 0 0 100 0 100 -50 0 -50 0 0 -200z m800 50 l0 -50 -50 0 -50 0 0
-50 0 -50 -100 0 -100 0 0 50 0 50 50 0 50 0 0 50 0 50 100 0 100 0 0 -50z
m400 -500 l0 -50 50 0 50 0 0 50 0 50 50 0 50 0 0 -50 0 -50 50 0 50 0 0 -50
0 -50 -50 0 -50 0 0 50 0 50 -50 0 -50 0 0 -50 0 -50 -100 0 -100 0 0 -100 0
-100 50 0 50 0 0 50 0 50 50 0 50 0 0 -50 0 -50 50 0 50 0 0 50 0 50 50 0 50
0 0 -50 0 -50 -50 0 -50 0 0 -50 0 -50 100 0 100 0 0 -50 0 -50 -50 0 -50 0 0
-250 0 -250 -50 0 -50 0 0 -50 0 -50 50 0 50 0 0 -50 0 -50 50 0 50 0 0 -50 0
-50 -100 0 -100 0 0 -100 0 -100 50 0 50 0 0 -50 0 -50 150 0 150 0 0 -50 0
-50 -100 0 -100 0 0 -250 0 -250 100 0 100 0 0 -50 0 -50 -100 0 -100 0 0 -50
0 -50 -50 0 -50 0 0 50 0 50 -50 0 -50 0 0 50 0 50 -50 0 -50 0 0 -50 0 -50
-50 0 -50 0 0 -50 0 -50 -50 0 -50 0 0 -50 0 -50 -50 0 -50 0 0 50 0 50 -50 0
-50 0 0 100 0 100 50 0 50 0 0 100 0 100 -50 0 -50 0 0 50 0 50 -50 0 -50 0 0
50 0 50 100 0 100 0 0 50 0 50 50 0 50 0 0 50 0 50 -100 0 -100 0 0 -50 0 -50
-150 0 -150 0 0 -50 0 -50 50 0 50 0 0 -50 0 -50 -50 0 -50 0 0 50 0 50 -200
0 -200 0 0 100 0 100 50 0 50 0 0 -50 0 -50 100 0 100 0 0 50 0 50 -50 0 -50
0 0 100 0 100 -50 0 -50 0 0 -50 0 -50 -50 0 -50 0 0 50 0 50 50 0 50 0 0 50
0 50 50 0 50 0 0 -50 0 -50 50 0 50 0 0 150 0 150 -50 0 -50 0 0 50 0 50 -50
0 -50 0 0 50 0 50 -100 0 -100 0 0 50 0 50 -50 0 -50 0 0 50 0 50 100 0 100 0
0 -50 0 -50 150 0 150 0 0 50 0 50 50 0 50 0 0 50 0 50 -50 0 -50 0 0 100 0
100 50 0 50 0 0 50 0 50 50 0 50 0 0 -100 0 -100 -50 0 -50 0 0 -50 0 -50 50
0 50 0 0 -150 0 -150 -50 0 -50 0 0 -50 0 -50 50 0 50 0 0 -100 0 -100 50 0
50 0 0 50 0 50 50 0 50 0 0 50 0 50 -50 0 -50 0 0 50 0 50 100 0 100 0 0 100
0 100 100 0 100 0 0 100 0 100 -50 0 -50 0 0 -50 0 -50 -100 0 -100 0 0 -100
0 -100 -50 0 -50 0 0 100 0 100 50 0 50 0 0 50 0 50 -50 0 -50 0 0 100 0 100
100 0 100 0 0 100 0 100 50 0 50 0 0 100 0 100 50 0 50 0 0 -50z m-800 -700
l0 -50 -50 0 -50 0 0 50 0 50 50 0 50 0 0 -50z m-500 -200 l0 -50 -50 0 -50 0
0 50 0 50 50 0 50 0 0 -50z m1800 -200 l0 -50 50 0 50 0 0 50 0 50 50 0 50 0
0 -50 0 -50 -50 0 -50 0 0 -50 0 -50 -50 0 -50 0 0 50 0 50 -50 0 -50 0 0 50
0 50 50 0 50 0 0 -50z m-2100 -250 l0 -100 -50 0 -50 0 0 100 0 100 50 0 50 0
0 -100z m2200 -50 l0 -50 -50 0 -50 0 0 -50 0 -50 -50 0 -50 0 0 50 0 50 50 0
50 0 0 50 0 50 50 0 50 0 0 -50z m200 -600 l0 -150 -150 0 -150 0 0 150 0 150
150 0 150 0 0 -150z m0 -400 l0 -150 -50 0 -50 0 0 150 0 150 50 0 50 0 0
-150z m200 100 l0 -50 -50 0 -50 0 0 50 0 50 50 0 50 0 0 -50z"/>
<path d="M2100 2550 l0 -50 50 0 50 0 0 50 0 50 -50 0 -50 0 0 -50z"/>
<path d="M2400 2550 l0 -50 50 0 50 0 0 -100 0 -100 -50 0 -50 0 0 -50 0 -50
50 0 50 0 0 -100 0 -100 50 0 50 0 0 100 0 100 -50 0 -50 0 0 50 0 50 50 0 50
0 0 150 0 150 -100 0 -100 0 0 -50z"/>
<path d="M1600 2050 l0 -50 50 0 50 0 0 -50 0 -50 50 0 50 0 0 50 0 50 -50 0
-50 0 0 50 0 50 -50 0 -50 0 0 -50z"/>
<path d="M2300 2000 l0 -100 50 0 50 0 0 -50 0 -50 -50 0 -50 0 0 -100 0 -100
-50 0 -50 0 0 150 0 150 -50 0 -50 0 0 -50 0 -50 -50 0 -50 0 0 -100 0 -100
-150 0 -150 0 0 -50 0 -50 50 0 50 0 0 -50 0 -50 100 0 100 0 0 50 0 50 50 0
50 0 0 50 0 50 50 0 50 0 0 -50 0 -50 50 0 50 0 0 50 0 50 100 0 100 0 0 50 0
50 50 0 50 0 0 100 0 100 -100 0 -100 0 0 100 0 100 -50 0 -50 0 0 -100z m200
-250 l0 -50 -50 0 -50 0 0 50 0 50 50 0 50 0 0 -50z"/>
<path d="M2400 1450 l0 -50 50 0 50 0 0 -50 0 -50 -50 0 -50 0 0 -50 0 -50
-100 0 -100 0 0 -100 0 -100 50 0 50 0 0 50 0 50 50 0 50 0 0 -100 0 -100 -50
0 -50 0 0 -50 0 -50 -50 0 -50 0 0 -50 0 -50 100 0 100 0 0 100 0 100 100 0
100 0 0 -50 0 -50 50 0 50 0 0 50 0 50 -50 0 -50 0 0 50 0 50 50 0 50 0 0 100
0 100 -50 0 -50 0 0 50 0 50 50 0 50 0 0 50 0 50 -100 0 -100 0 0 50 0 50 -50
0 -50 0 0 -50z m200 -350 l0 -100 -50 0 -50 0 0 50 0 50 -50 0 -50 0 0 50 0
50 100 0 100 0 0 -100z"/>
<path d="M3000 1050 l0 -50 50 0 50 0 0 50 0 50 -50 0 -50 0 0 -50z"/>
<path d="M2700 3650 l0 -50 50 0 50 0 0 -50 0 -50 50 0 50 0 0 50 0 50 -50 0
-50 0 0 50 0 50 -50 0 -50 0 0 -50z"/>
<path d="M3000 3350 l0 -350 350 0 350 0 0 350 0 350 -350 0 -350 0 0 -350z
m600 0 l0 -250 -250 0 -250 0 0 250 0 250 250 0 250 0 0 -250z"/>
<path d="M3200 3350 l0 -150 150 0 150 0 0 150 0 150 -150 0 -150 0 0 -150z"/>
<path d="M400 2850 l0 -50 100 0 100 0 0 50 0 50 -100 0 -100 0 0 -50z"/>
<path d="M800 2800 l0 -100 -50 0 -50 0 0 -50 0 -50 50 0 50 0 0 -50 0 -50 50
0 50 0 0 -50 0 -50 100 0 100 0 0 50 0 50 -50 0 -50 0 0 50 0 50 50 0 50 0 0
50 0 50 -50 0 -50 0 0 50 0 50 50 0 50 0 0 50 0 50 -150 0 -150 0 0 -100z
m200 -150 l0 -50 -50 0 -50 0 0 50 0 50 50 0 50 0 0 -50z"/>
<path d="M1200 2600 l0 -100 100 0 100 0 0 50 0 50 50 0 50 0 0 50 0 50 -150
0 -150 0 0 -100z"/>
<path d="M3500 2450 l0 -50 100 0 100 0 0 50 0 50 -100 0 -100 0 0 -50z"/>
<path d="M3600 2050 l0 -50 50 0 50 0 0 50 0 50 -50 0 -50 0 0 -50z"/>
<path d="M3600 1650 l0 -50 50 0 50 0 0 50 0 50 -50 0 -50 0 0 -50z"/>
<path d="M400 1550 l0 -50 50 0 50 0 0 50 0 50 -50 0 -50 0 0 -50z"/>
<path d="M600 1350 l0 -50 -100 0 -100 0 0 -50 0 -50 200 0 200 0 0 100 0 100
-100 0 -100 0 0 -50z"/>
<path d="M400 750 l0 -350 350 0 350 0 0 350 0 350 -350 0 -350 0 0 -350z
m600 0 l0 -250 -250 0 -250 0 0 250 0 250 250 0 250 0 0 -250z"/>
<path d="M600 750 l0 -150 150 0 150 0 0 150 0 150 -150 0 -150 0 0 -150z"/>
<path d="M1800 850 l0 -50 50 0 50 0 0 50 0 50 -50 0 -50 0 0 -50z"/>
<path d="M3600 450 l0 -50 50 0 50 0 0 50 0 50 -50 0 -50 0 0 -50z"/>
</g>
</svg>
